<svg width="114" height="126" viewBox="0 0 114 126" fill="none" xmlns="http://www.w3.org/2000/svg">
<path d="M76.9726 54.2784C76.942 54.0571 76.9465 53.8319 77.005 53.6016C76.9942 53.8407 76.9834 54.0661 76.9726 54.2784C77.0619 54.9231 77.4494 55.5348 77.6665 56.1437C79.1092 58.9149 78.5988 62.1758 78.1717 65.1398C77.6866 62.3346 78.3832 59.1665 76.8025 56.6633C76.7435 57.1865 76.6838 57.4368 76.6222 57.5361C76.4153 60.7343 75.1944 63.7444 74.7082 66.9057C74.3748 68.5882 73.5207 70.1197 73.255 71.8178C73.4998 73.2243 74.5519 74.3026 75.0936 75.5997C75.203 76.6363 75.005 77.6729 74.8957 78.7043C74.5415 78.7145 73.8333 78.7248 73.4689 78.7301L73.453 78.7303C72.5884 78.2146 71.7603 77.6468 70.8957 77.1468C70.7082 76.2144 70.5103 75.2925 70.3124 74.3706L70.3123 74.3703C69.9894 74.9641 69.6665 75.5528 69.3644 76.1675C69.3332 74.5631 68.7603 72.6409 70.3175 71.5574C70.6509 72.3075 70.979 73.0628 71.3123 73.8234C72.1509 70.7187 70.9686 67.5099 71.7707 64.4001C73.3488 63.4052 72.6717 61.3788 72.5311 59.863C72.3384 58.1492 71.0103 56.9511 70.13 55.5759C69.1717 54.2007 69.0519 52.4661 68.3592 50.9763C67.6717 50.1063 66.7238 49.5073 65.8592 48.8405C66.0467 50.1532 66.2498 51.4607 66.4217 52.7838C65.4321 51.1273 65.2238 49.2468 65.7915 47.4132C64.0988 46.3089 62.5467 44.9597 61.5988 43.1418C61.5155 43.522 61.354 44.2826 61.2707 44.6628L61.2704 44.6625C60.5413 43.6208 59.8123 42.5791 59.0467 41.5634C58.1561 44.1263 58.7238 46.8611 58.9634 49.4916C58.2238 48.2831 57.4634 47.0903 56.729 45.887C56.4478 45.8766 55.8853 45.8609 55.604 45.8505L55.6013 45.8657C55.3573 47.2257 55.1062 48.626 54.2967 49.7834C53.8199 48.1835 53.7166 46.518 53.6141 44.8664L53.6092 44.7879C53.9686 45.2671 54.3332 45.7411 54.7082 46.2204C56.5988 42.9126 53.3696 40.2507 51.6248 37.8129C51.8644 37.6618 52.3488 37.3701 52.5936 37.2242C54.2655 38.2609 55.5259 39.7923 56.9217 41.1519C56.4269 39.8965 55.9113 38.6567 55.3332 37.443C56.5519 36.5106 57.2759 34.9583 56.6821 33.4581C56.203 31.562 55.5155 29.7336 54.8384 27.9104C54.703 30.1034 54.604 32.3016 54.3488 34.4895C54.13 32.1766 54.0675 29.8638 54.0207 27.5509C53.9478 29.5617 53.8905 31.5776 53.7498 33.5883C52.2238 32.833 50.7498 31.8797 49.7134 30.5149C49.38 29.7075 49.578 28.8011 49.4946 27.9677C50.3853 29.6971 51.6092 31.2338 53.1769 32.3954C53.5623 29.1241 53.1873 25.7746 54.0675 22.5763C54.703 20.1905 55.2186 17.7578 56.2603 15.5127C55.5259 20.3416 54.5571 25.3892 56.3384 30.1295C57.6925 35.6303 60.5363 40.7196 64.6196 44.6576C65.5155 43.3762 66.3384 42.0531 67.078 40.6779C66.6978 40.0372 66.3227 39.4016 65.9686 38.7609C66.0102 38.5317 66.0988 38.0733 66.1457 37.8441C66.7238 38.6359 67.2603 39.4641 67.8071 40.2872C67.8905 39.8965 68.0623 39.1047 68.1457 38.714C68.2659 38.0578 68.3668 37.4065 68.467 36.76L68.479 36.6825C68.729 37.9692 68.7967 39.287 68.979 40.5893C69.1509 42.3083 70.5363 43.5898 70.8696 45.2671C70.88 47.2049 69.0259 48.9499 69.9217 50.9033C70.8957 53.3568 71.6769 55.9926 73.5311 57.9617C73.6509 60.0297 73.7134 62.1446 72.9269 64.1032C72.2186 65.718 72.5936 67.4787 73.104 69.0883C74.1665 66.5671 74.6561 63.8532 75.5103 61.259C76.0114 55.2407 76.3379 57.9944 76.6222 57.5361C76.6458 57.1718 76.6562 56.8051 76.6509 56.4354C76.7036 56.5107 76.7541 56.5867 76.8025 56.6633C76.8594 56.1587 76.9157 55.4002 76.9726 54.2784Z" fill="#B90100"/>
<path d="M62.3486 99.4313C63.8799 100.546 65.1455 101.973 66.6038 103.187C69.0934 104.776 71.9059 106.057 73.6924 108.521L72.9111 108.266C70.958 107.427 69.4372 105.76 67.3226 105.265C65.6976 104.859 64.3382 103.864 62.8955 103.067C62.3747 101.926 62.3695 100.655 62.3486 99.4313Z" fill="#B90100"/>
<path d="M41.9115 0.0364675C42.099 0.0260493 42.4844 0.0104182 42.6719 0C42.724 2.27117 42.1823 4.50587 41.6771 6.70932C41.4167 7.51152 41.3125 8.61065 40.3438 8.87111C40.599 5.89151 41.026 2.89626 41.9115 0.0364675Z" fill="#AE1000"/>
<path d="M52.1354 6.12596C51.8541 4.92266 52.2187 3.6308 53.177 2.83902C53.1354 3.84958 53.3906 5.95927 52.1354 6.12596Z" fill="#CD1100"/>
<path d="M64.7919 23.5035C65.4273 23.118 66.0211 24.238 65.62 24.7276C64.9794 25.0922 64.4013 23.9879 64.7919 23.5035Z" fill="#A90500"/>
<path d="M47.3123 29.5096C48.1613 29.7284 48.9478 30.1243 49.2342 31.015C49.9269 32.6819 51.2655 34.104 51.6769 35.8543C50.8019 37.8858 49.9321 39.9278 49.4686 42.1052C48.8957 43.9179 48.3071 45.7255 47.6353 47.507C47.203 47.8977 46.7655 48.2884 46.328 48.6738C47.0728 46.9132 47.8175 45.1213 48.1248 43.2251C48.4894 41.2822 47.1509 39.6465 46.2759 38.0525C46.953 38.4953 47.5832 39.2714 48.4321 39.3339C49.6144 38.7193 50.3384 37.219 50.255 35.9116C49.4738 33.6821 47.6509 31.9162 47.3123 29.5096Z" fill="#D41600"/>
<path d="M61.8179 35.1979C63.6043 35.3021 65.1408 36.4168 66.146 37.8441C66.0991 38.0733 66.0106 38.5317 65.9689 38.7609C64.8595 37.2295 62.6772 36.9117 61.8179 35.1979Z" fill="#9C0B00"/>
<path d="M34.5104 38.7297C35.1719 39.3079 35.1041 40.2299 35.2708 41.0269C35.4844 42.923 36.6041 44.543 37.0781 46.3766C34.6198 44.6993 33.8437 41.5218 34.5104 38.7297Z" fill="#C11000"/>
<path d="M47.6357 47.507C48.3076 45.7255 48.8962 43.9179 49.4691 42.1052C49.8701 42.8709 50.266 43.6419 50.6305 44.4336C50.6097 44.7306 50.5628 45.3192 50.542 45.6161L50.4951 46.163C50.2243 47.1215 49.8701 48.0592 49.5524 49.0124C49.5212 48.6843 49.4639 48.0331 49.4326 47.7102C48.8337 47.6424 48.2347 47.5695 47.6357 47.507Z" fill="#B70000"/>
<path d="M32.297 69.3852C32.1043 67.7756 32.5522 66.14 32.6772 64.5356C34.0887 66.7234 35.9897 68.5361 37.5366 70.6302C37.2345 71.3074 36.9429 71.995 36.646 72.6878C36.1095 72.6357 35.5731 72.5836 35.0366 72.5471C35.1199 73.0472 35.2085 73.5473 35.297 74.0578C36.2449 74.386 37.1929 74.7298 38.1408 75.0892C38.5627 76.1935 39.2085 77.1989 39.9689 78.1157C40.9481 77.3239 41.7033 76.329 41.9272 75.0684C42.3022 76.329 42.8804 77.751 42.2345 79.0325C41.3179 79.9128 40.0522 80.3139 38.9533 80.9286C38.5575 82.2934 38.0679 83.6946 36.8283 84.5385C34.9689 84.6687 33.5939 86.0439 32.021 86.8774C32.0731 85.0073 33.5106 83.7155 34.4845 82.2777C33.2189 82.7622 31.6564 83.1164 31.0887 84.5229C29.8074 86.544 30.0522 89.0079 29.87 91.2947C29.4116 90.878 28.5158 90.7634 28.4272 90.0497C28.0522 87.3983 28.3075 84.3041 30.4272 82.4028C32.2866 80.5014 35.6043 79.2513 35.3283 76.0789C34.3752 75.782 33.4272 75.5163 32.5002 75.1569C32.6095 74.9121 32.8283 74.4329 32.9325 74.188C33.5522 74.5527 34.1929 74.8548 34.8387 75.1882C34.7033 72.9743 33.1877 71.3022 32.297 69.3852Z" fill="#B70000"/>
<path d="M51.2863 42.0687C52.1196 42.9178 52.9217 43.8086 53.6092 44.7879C53.7134 46.4652 53.8123 48.1581 54.2967 49.7834C55.1092 48.6217 55.3592 47.2153 55.604 45.8505C55.8853 45.8609 56.4478 45.8766 56.729 45.887C57.4634 47.0903 58.2238 48.2831 58.9634 49.4917C59.9113 52.4452 57.7863 55.2738 58.3853 58.2638C57.4738 56.4979 56.1665 54.8623 56.0832 52.7942C55.9113 52.9766 55.578 53.3412 55.4061 53.5287C55.3071 52.8672 55.203 52.2212 55.104 51.5753C54.453 51.0752 53.4582 50.7418 53.4217 49.7834C53.1248 48.0696 53.328 46.2516 52.5675 44.6472C52.3436 45.7515 52.1561 46.8663 51.9894 47.9862C51.7967 47.1528 51.604 46.3193 51.4165 45.4911C51.1978 45.5223 50.7603 45.5848 50.5415 45.6161C50.5623 45.3192 50.6092 44.7306 50.63 44.4336C50.8228 43.6367 51.0519 42.8501 51.2863 42.0687Z" fill="#E12200"/>
<path d="M77.5518 85.0698C79.2393 85.4917 80.583 86.8669 82.4059 86.9503C83.583 86.9659 84.4059 87.7108 84.8643 88.7422C84.2809 88.5755 83.7028 88.4244 83.1247 88.2629C81.5205 89.6642 79.6091 90.6383 77.9528 91.9666C78.6507 92.2688 79.3486 92.5761 80.0518 92.8782C79.9632 93.0762 79.7861 93.4773 79.6976 93.6752L79.4215 94.2743L80.0778 94.4201C81.4059 94.7587 82.7497 95.1025 84.1299 95.1859C82.8122 95.2588 81.4945 95.2848 80.182 95.3577C80.2757 95.6078 80.458 96.1027 80.5465 96.3527C82.8018 96.9309 85.182 96.8319 87.4684 97.2851L86.8122 97.6341C84.4059 97.7123 82.0101 97.431 79.609 97.582C81.6143 99.3271 84.5309 98.9103 86.9945 99.2698C86.9684 99.6396 86.9216 100.374 86.8955 100.744C85.7132 101.223 84.432 101.468 83.2913 100.749C82.0257 99.9574 80.583 100.239 79.2445 100.635C79.7653 101.051 80.2861 101.468 80.8122 101.895C81.8226 103.005 82.6507 104.265 83.4372 105.547C83.1559 105.588 82.5882 105.682 82.3018 105.724C79.3851 103.885 76.5726 101.895 73.7236 99.9574C71.8695 98.7905 69.9893 97.4883 67.7288 97.3476C67.6455 97.0819 67.4788 96.5454 67.3903 96.2798C67.2132 95.7953 67.0205 95.3213 66.8174 94.8577C68.1507 94.6962 69.6247 94.4253 70.583 95.6182C69.9893 95.6234 69.4007 95.6338 68.8122 95.6443C69.0518 95.9203 69.2913 96.2068 69.5309 96.4985C71.7653 96.6444 74.0049 96.7121 76.2445 96.8163C75.3486 96.983 74.5257 97.3737 73.7236 97.78C75.083 97.9779 76.4528 98.0613 77.8278 98.0873C77.6924 97.7852 77.432 97.1862 77.3018 96.884C78.2028 96.957 79.1143 96.9622 80.0205 96.884C79.4163 96.4621 78.7809 96.0922 78.0882 95.8474C77.6403 95.191 77.1872 94.5451 76.7184 93.9148C76.4997 94.0242 76.0726 94.243 75.8538 94.3524C75.7705 93.6439 75.833 92.8522 75.2288 92.3521C76.1143 92.1229 76.9476 91.7426 77.6924 91.2113C78.3174 90.7842 78.9684 90.3831 79.5361 89.883C79.6455 89.1329 79.6403 88.3776 79.6715 87.6379C78.7028 87.018 77.7445 86.3877 76.859 85.6636C77.0361 85.5125 77.3799 85.2156 77.5518 85.0698Z" fill="#E12200"/>
<path d="M52.5679 44.6472C53.3283 46.2516 53.1252 48.0696 53.422 49.7833C53.4585 50.7418 54.4533 51.0752 55.1043 51.5753C55.2033 52.2212 55.3075 52.8671 55.4064 53.5287C55.5783 53.3412 55.9116 52.9765 56.0835 52.7942C56.1668 54.8622 57.4741 56.4979 58.3856 58.2638C59.2502 60.0401 60.0679 61.9726 61.7866 63.103C62.1356 61.2486 62.4793 59.3941 62.9637 57.5762C63.245 57.5085 63.8179 57.373 64.0991 57.3053C63.8856 59.3681 63.2866 61.4153 63.4168 63.5041C63.8648 65.4002 65.0887 66.9994 65.6772 68.8591C65.4377 73.0316 64.4325 77.5479 66.3387 81.4755C67.172 83.8404 67.2189 86.471 68.5523 88.6693C69.3648 89.1537 70.2293 89.5496 71.0939 89.9455C71.7502 89.185 72.8075 88.5391 72.7658 87.4087C73.2658 84.9969 71.3127 83.1997 70.396 81.1942C69.6512 79.7669 69.8387 78.1208 69.87 76.5789C70.1252 76.7196 70.6408 77.0061 70.896 77.1468C71.7606 77.6468 72.5887 78.2146 73.4533 78.7303C74.5418 81.064 75.8127 83.3039 76.8595 85.6636C77.745 86.3877 78.7033 87.018 79.672 87.6379C79.6408 88.3776 79.646 89.1329 79.5366 89.883C78.9689 90.3831 78.3179 90.7842 77.6929 91.2113C76.12 91.0134 74.3439 90.4925 72.9481 91.5551C73.7033 91.826 74.4637 92.0917 75.2293 92.3521C75.8335 92.8522 75.771 93.644 75.8543 94.3524C75.5418 94.5295 74.9116 94.8733 74.5939 95.0504C73.8908 95.0869 73.1929 95.1286 72.495 95.1806C74.3439 95.5036 76.2137 95.712 78.0887 95.8474C78.7814 96.0922 79.4168 96.4621 80.021 96.884C79.1147 96.9622 78.2033 96.957 77.3023 96.884C77.0366 96.8684 76.5054 96.8372 76.245 96.8163C74.0054 96.7121 71.7658 96.6444 69.5314 96.4985C69.2918 96.2068 69.0523 95.9203 68.8127 95.6443C69.4012 95.6338 69.9897 95.6234 70.5835 95.6182C69.6252 94.4253 68.1512 94.6962 66.8179 94.8577C65.9533 92.9407 64.4741 91.3884 63.6147 89.4819C63.297 88.1952 63.4116 86.8617 63.3908 85.5594C62.4741 84.8875 61.547 84.2363 60.6147 83.6008C60.2502 84.8719 59.9012 86.1533 59.6095 87.4503C59.0523 87.8254 58.495 88.2057 57.9325 88.5807C58.1095 86.096 59.495 84.0227 60.4585 81.8193C60.3908 81.5745 60.2658 81.0796 60.2033 80.8296C59.5262 81.7412 58.8908 82.6892 58.271 83.6425C57.995 83.1632 57.7189 82.6892 57.4481 82.2204C57.0158 82.658 56.5887 83.106 56.1616 83.5539C55.5731 83.5435 54.9845 83.5383 54.396 83.5435C54.2554 83.9134 54.1147 84.2936 53.9741 84.6739C51.6043 88.263 51.297 92.6282 50.0939 96.6548C49.6095 96.6496 49.1252 96.6496 48.6408 96.6548C47.6252 97.7383 46.6304 99.2854 44.9689 99.275C43.9637 99.3792 43.2606 98.3165 43.4481 97.4049C43.4585 96.0975 44.5314 95.191 45.2397 94.2169C42.8595 95.1858 40.2137 95.9047 38.4429 97.8946C38.0627 98.2176 37.672 98.5405 37.2918 98.8687C36.6512 99.3584 36.0054 99.848 35.3595 100.343C34.3543 99.749 33.3543 99.15 32.3647 98.5353C33.1147 97.7227 33.87 96.9101 34.6929 96.1756C35.3804 95.8057 36.0627 95.4307 36.7293 95.0348C37.2814 94.1232 37.7814 93.1803 38.2658 92.2375C39.3231 89.9924 38.3491 87.5077 38.3231 85.1584C37.8231 84.95 37.3231 84.7468 36.8283 84.5385C38.0679 83.6946 38.5575 82.2933 38.9533 80.9286C40.0523 80.3139 41.3179 79.9128 42.2345 79.0324C42.8804 77.751 42.3022 76.3289 41.9272 75.0683C41.1512 73.8754 40.245 72.7867 39.37 71.6772C40.1252 70.8073 40.9168 69.9738 41.745 69.1768C41.9377 69.3956 42.3127 69.828 42.5054 70.0415C42.8231 70.052 43.4585 70.0728 43.7762 70.0832C44.3595 68.4163 43.7554 66.739 43.2554 65.145C43.2918 64.8897 43.3752 64.3688 43.4116 64.1136C46.2554 65.6711 47.9585 68.4944 50.3752 70.5572C51.8647 71.8595 52.0887 74.1255 51.521 75.933C50.8127 78.3448 50.3439 80.8348 50.2866 83.356C51.4116 81.9652 52.2918 80.3503 52.5627 78.5636C53.0002 75.782 53.6616 73.0315 53.8908 70.2238C53.9116 68.9424 55.0314 67.911 54.8022 66.6192C54.3022 63.6135 53.7502 60.6183 52.9845 57.6699C52.4116 55.4404 53.021 52.9401 51.7658 50.9033C50.8856 49.4708 50.3283 47.856 50.495 46.163L50.5418 45.6161C50.7606 45.5848 51.1981 45.5223 51.4168 45.4911C51.6043 46.3193 51.797 47.1527 51.9897 47.9862C52.1564 46.8662 52.3439 45.7515 52.5679 44.6472ZM56.87 78.0427C57.7189 76.9748 57.9325 75.4382 56.8804 74.4172C55.8856 75.4278 55.9272 77.0061 56.87 78.0427Z" fill="#F43500"/>
<path d="M47.2239 56.8834C47.6198 54.8518 48.4271 52.9297 48.9687 50.9398C49.3021 52.9662 50.7552 54.4247 51.7343 56.1229C53.0104 60.0766 53.9062 64.1814 54.2239 68.333C52.6354 67.6767 51.776 66.1452 50.7135 64.9002C51.4114 63.8896 52.0885 62.8686 52.7396 61.832C52.5208 61.7591 52.0885 61.6133 51.8698 61.5455C51.6875 59.3213 51.7968 56.6802 50.0937 55.0029L49.5468 54.9456C48.375 57.5345 47.6406 60.8267 49.4062 63.3375C49.2864 63.6292 49.0573 64.2178 48.9427 64.5095C47.5 62.2748 46.901 59.514 47.2239 56.8834Z" fill="#C00500"/>
<path d="M44.5 58.144C44.6771 56.8938 44.25 55.0602 45.7865 54.581C45.8021 55.7686 45.7813 56.9563 45.75 58.1492C45.4375 58.1492 44.8125 58.144 44.5 58.144Z" fill="#E52700"/>
<path d="M41.8335 60.7277C42.2502 62.2123 42.7606 63.676 43.2554 65.145C43.7554 66.7389 44.3596 68.4163 43.7762 70.0832C43.4585 70.0728 42.8231 70.0519 42.5054 70.0415C42.3127 69.828 41.9377 69.3956 41.745 69.1768C41.12 67.7183 40.6877 66.1764 40.5106 64.6032C40.2919 63.1707 41.3596 61.9935 41.8335 60.7277Z" fill="#BA0000"/>
<path d="M30.1095 113.413C30.9793 113.095 31.5575 113.944 32.172 114.392C31.2918 115.434 30.4481 116.501 29.547 117.528C28.0887 115.871 25.6095 115.09 23.6043 116.194C23.37 116.84 23.245 117.528 23.0991 118.21C21.5679 117.757 19.9741 117.741 18.396 117.637C18.0991 117.877 17.8022 118.132 17.5106 118.387C17.0627 118.09 16.62 117.799 16.1772 117.512C18.4272 116.533 20.6356 115.465 22.8283 114.376C25.2293 113.86 27.7137 113.954 30.1095 113.413Z" fill="#BA0000"/>
<path d="M30.3438 69.6821C31.2135 71.1771 31.9375 72.7659 32.9323 74.188C32.8281 74.4328 32.6094 74.9121 32.5 75.1569C31.099 73.6723 30.3438 71.7137 30.3438 69.6821Z" fill="#980A00"/>
<path d="M69.3543 80.9859C71.1043 83.6217 71.6824 86.8513 71.0939 89.9455C70.2293 89.5496 69.3647 89.1537 68.5522 88.6693C68.8908 87.4347 69.4377 86.2419 69.5366 84.9604C69.4012 83.6373 68.9481 82.309 69.3543 80.9859Z" fill="#B80000"/>
<path d="M14.0415 84.2937C18.0363 83.6165 22.0623 82.9966 26.1144 82.7778C25.9113 82.9654 25.505 83.3456 25.3019 83.5332C25.9686 83.7051 26.6353 83.8717 27.3019 84.0592C23.6978 84.7573 20.0207 85.0282 16.3592 85.2522C16.4217 85.0646 16.5363 84.6844 16.5936 84.4916C15.7446 84.4135 14.8905 84.3353 14.0415 84.2937Z" fill="#C00300"/>
<path d="M53.9741 84.6739C53.771 86.5127 53.8022 88.3724 53.9272 90.2216C54.5575 89.8413 55.1877 89.4715 55.8179 89.0964C55.3022 89.982 54.7918 90.8727 54.2762 91.7635C55.4897 91.1071 56.7241 90.4821 57.9845 89.9143C57.2762 91.1228 56.5158 92.3209 56.0418 93.6492C55.4012 93.4877 54.7658 93.3054 54.1356 93.1491C53.8856 93.0814 53.396 92.9564 53.146 92.8886C52.9377 92.4823 52.7293 92.0812 52.521 91.6853C51.5575 92.9199 51.3908 94.4722 51.3439 95.9933C50.9585 96.608 50.7449 97.4727 49.9272 97.6602C48.3283 98.2072 46.8543 99.0354 45.547 100.114C43.2137 99.7438 41.2918 100.989 39.5366 102.348C37.9429 101.249 35.9897 101.791 34.3804 102.546C34.3127 101.947 34.245 101.359 34.1825 100.77C33.7241 100.4 33.2658 100.036 32.8127 99.6761C30.1877 99.973 27.6772 100.843 25.0627 101.176C22.4741 101.39 20.1564 102.697 17.6252 103.171C17.3543 102.999 16.8075 102.651 16.5366 102.473C20.3752 101.697 24.047 100.26 27.9116 99.598C29.3647 99.2802 30.6356 98.4832 31.9325 97.7956C30.5783 98.0405 29.2033 98.1082 27.8283 98.0613C28.5418 97.4674 29.2658 96.8944 29.9845 96.311C29.6564 96.3058 29.0054 96.2902 28.6772 96.285C29.3856 96.1443 30.0939 95.9881 30.8022 95.8266C32.021 96.4256 33.3856 96.3371 34.6929 96.1756C33.87 96.9101 33.1147 97.7227 32.3647 98.5353C33.3543 99.15 34.3543 99.749 35.3595 100.343C36.0054 99.848 36.6512 99.3584 37.2918 98.8687C37.2554 99.124 37.1825 99.6292 37.1512 99.8845C37.8283 99.5927 38.5054 99.301 39.1825 99.0145C39.4377 99.4573 39.6877 99.9001 39.9429 100.353C40.4793 100.322 41.0158 100.296 41.5522 100.275C42.1772 99.2489 42.5939 98.1186 42.7762 96.9361C41.3075 97.1341 39.8491 97.4206 38.4429 97.8946C40.2137 95.9047 42.8595 95.1858 45.2397 94.217C44.5314 95.1911 43.4585 96.0975 43.4481 97.405C43.2606 98.3165 43.9637 99.3792 44.9689 99.275C46.6304 99.2854 47.6252 97.7383 48.6408 96.6548C49.1252 96.6496 49.6095 96.6496 50.0939 96.6548C51.297 92.6282 51.6043 88.263 53.9741 84.6739Z" fill="#B80100"/>
<path d="M72.9478 91.5551C74.3436 90.4925 76.1196 91.0134 77.6925 91.2114C76.9478 91.7427 76.1144 92.1229 75.229 92.3521C74.4634 92.0917 73.703 91.826 72.9478 91.5551Z" fill="#A70400"/>
<path d="M93.8281 95.0712C95.1667 94.3211 96.5365 93.6075 98.026 93.222C97.9115 93.4825 97.6823 94.0086 97.5677 94.269C99.125 93.9721 100.698 93.7846 102.281 93.7065C101.599 94.1492 100.917 94.5868 100.234 95.0296C100.745 95.3369 101.266 95.6442 101.792 95.9516C99.1667 95.4202 96.4896 95.3265 93.8281 95.0712Z" fill="#BD0900"/>
<path d="M59.6144 97.6915C59.328 96.8372 59.4582 95.9516 59.5415 95.0869C59.9425 95.8474 60.328 96.6288 60.6665 97.431C60.9217 98.2176 61.1352 99.025 61.3488 99.8376C61.7134 101.286 62.0884 102.734 62.4582 104.187C62.2603 104.302 61.8748 104.531 61.6769 104.646C60.8644 102.364 60.2915 100.01 59.6144 97.6915Z" fill="#C20B00"/>
<path d="M54.4946 103.63C53.4321 101.093 53.5988 98.3009 54.0259 95.6443C54.8384 96.9465 55.2603 98.4624 54.9999 100.009C54.8592 101.213 54.6821 102.421 54.4946 103.63Z" fill="#CA1200"/>
<path d="M24.5367 97.2904C25.87 96.7747 27.2658 96.4674 28.6773 96.285C29.0054 96.2902 29.6564 96.3059 29.9846 96.3111C29.2658 96.8945 28.5419 97.4675 27.8283 98.0613C29.2033 98.1082 30.5783 98.0405 31.9325 97.7957C30.6356 98.4833 29.3648 99.2803 27.9117 99.598C24.0471 100.26 20.3752 101.697 16.5367 102.473C14.8387 102.744 13.1044 102.895 11.4742 103.463C10.9273 104.479 11.4429 105.792 11.3283 106.927C11.2867 107.198 11.2137 107.745 11.1773 108.016C10.9169 107.604 10.6669 107.193 10.4273 106.787C9.80228 105.177 9.08874 102.875 10.5106 101.505C14.0627 99.9002 17.9429 99.1917 21.6564 98.0665C22.6877 97.7279 23.7658 97.5769 24.8492 97.6238C24.021 98.2853 23.146 98.9365 22.0992 99.2178C19.0835 100.129 16.0471 101.004 12.9117 101.4C12.1773 101.38 11.7971 102.01 11.3908 102.51C15.1721 101.661 18.8023 100.223 22.5835 99.3792C23.7919 99.1761 25.0471 99.1917 26.1825 98.6812C25.771 98.3322 24.9481 97.6394 24.5367 97.2904Z" fill="#3B0000"/>
<path d="M66.7448 96.4152L67.3906 96.2798C67.4792 96.5454 67.6458 97.0819 67.7292 97.3476C67.8021 97.6029 67.9531 98.1134 68.026 98.3634C67.1823 97.7852 66.1979 97.2903 65.1615 97.7227C66.974 99.9939 69.9531 100.739 72.0677 102.666C70.8385 102.807 69.7604 102.192 68.724 101.635C68.2083 101.76 67.6927 101.89 67.1823 102.025C66.0417 101.135 64.6354 100.291 64.2188 98.8166C64.4115 97.5091 65.6146 96.8163 66.7448 96.4152Z" fill="#8B0000"/>
<path d="M76.245 96.8163C76.5054 96.8372 77.0366 96.8684 77.3023 96.8841C77.4325 97.1862 77.6929 97.7852 77.8283 98.0874C76.4533 98.0613 75.0835 97.978 73.7241 97.78C74.5262 97.3737 75.3491 96.983 76.245 96.8163Z" fill="#B30200"/>
<path d="M92.4062 98.2853C92.6458 98.1811 93.1146 97.9779 93.349 97.879C95.6354 98.4103 97.9063 99.0354 100.26 99.2021C99.9011 99.5563 99.5417 99.9157 99.1823 100.28C99.901 100.52 100.62 100.77 101.344 100.999C99.2917 100.885 97.2396 100.786 95.1927 100.609C94.3125 99.7751 93.3594 99.025 92.4062 98.2853Z" fill="#AB0100"/>
<path d="M55.4844 99.4313C56.4948 98.6239 57.6615 98.801 58.7708 99.2281C58.8854 99.0041 59.1042 98.5614 59.2135 98.3374C59.3385 99.2958 59.5104 100.249 59.6927 101.213C58.1927 100.879 56.6302 100.53 55.4844 99.4313Z" fill="#BF0500"/>
<path d="M47.7446 100.296C48.8019 99.7178 49.8123 99.051 50.8227 98.3999C51.6144 99.2698 52.0884 100.327 52.1196 101.515C51.6769 101.994 51.2394 102.489 50.8071 102.989C50.7967 102.562 50.7759 101.702 50.7603 101.27C50.0623 101.437 49.3696 101.624 48.6769 101.807C48.3644 101.296 48.0519 100.796 47.7446 100.296Z" fill="#CD0F00"/>
<path d="M54.6299 108.427C54.8226 107.823 54.9997 107.224 55.1663 106.625C55.8018 109.667 57.1663 112.475 58.083 115.434C58.5309 116.574 57.557 117.512 56.9632 118.377C55.7966 115.158 55.4736 111.725 54.6299 108.427Z" fill="#CD0F00"/>
<path d="M100.26 99.2021C103.838 99.6709 107.453 99.7126 111.057 99.9001C111.807 100.025 112.719 99.9001 113.338 100.437C113.203 101.859 112.859 103.25 112.573 104.651C109.995 104.114 107.375 103.604 105 102.432C106.364 102.593 107.734 102.739 109.114 102.776C108.963 102.552 108.667 102.109 108.515 101.885C106.135 101.525 103.713 101.437 101.344 100.999C100.62 100.77 99.9009 100.52 99.1821 100.28C99.5415 99.9157 99.9009 99.5563 100.26 99.2021Z" fill="#E22500"/>
<path d="M71.8071 101.077C72.4478 100.697 73.0832 100.322 73.7238 99.9574C76.5728 101.895 79.3853 103.885 82.3019 105.724C83.8957 107.021 85.6457 108.094 87.4425 109.079C88.5936 109.756 89.6978 110.511 90.8019 111.272C91.0207 111.417 91.2446 111.568 91.4738 111.72C92.9842 112.688 94.5259 113.61 95.9582 114.699C95.0467 116.147 93.5155 117.028 92.2238 118.101C91.328 118.7 90.4582 119.591 89.3019 119.544C88.6144 119.226 87.9478 118.892 87.2967 118.528C86.2446 117.908 85.229 117.241 84.2186 116.564C80.6769 113.918 77.2967 111.079 73.6925 108.521C71.9061 106.057 69.0936 104.776 66.604 103.187C66.7498 102.895 67.0363 102.317 67.1821 102.025C73.1561 105.271 78.2811 109.787 83.8384 113.652C85.354 114.855 86.7655 116.262 88.6457 116.892C88.5103 116.35 88.38 115.814 88.2446 115.283C88.8957 114.975 89.5519 114.689 90.1925 114.361L90.7967 113.923C89.9582 112.407 88.1978 111.845 86.7863 111.016C85.9894 110.6 85.1769 110.209 84.3644 109.839C82.9269 109.026 81.7967 107.656 80.2498 107.094C79.4738 107.224 78.8228 107.677 78.1665 108.078C76.6248 106.807 74.63 105.823 73.7967 103.922C75.4269 104.791 76.854 105.995 78.4738 106.891C78.6665 106.839 79.0415 106.729 79.229 106.677C79.1873 106.557 79.104 106.313 79.0623 106.187C76.6092 104.531 74.3905 102.531 71.8071 101.077ZM91.4998 115.152C91.2603 115.767 91.0311 116.392 90.8228 117.028C92.3853 117.184 93.5051 115.944 94.453 114.897C93.6405 114.663 92.828 114.668 92.0207 114.913C91.8905 114.538 91.6248 113.793 91.4946 113.418C91.4946 113.991 91.4946 114.569 91.4998 115.152ZM89.2967 117.272C89.2186 117.481 89.0623 117.898 88.9842 118.106C89.8228 119.783 91.0207 116.429 89.2967 117.272Z" fill="#270000"/>
<path d="M20.4113 103.875C23.4582 103.031 26.5311 102.249 29.604 101.505C29.5832 101.791 29.5363 102.359 29.5155 102.645C26.2603 104.036 22.8644 105.187 19.8853 107.141C18.5832 107.953 17.1457 108.506 15.7446 109.115C16.703 107.339 18.3019 106.109 20.1144 105.292C20.1873 104.937 20.3384 104.229 20.4113 103.875Z" fill="#750000"/>
<path d="M89.2969 117.272C91.0208 116.429 89.8229 119.783 88.9844 118.106C89.0625 117.898 89.2187 117.481 89.2969 117.272Z" fill="#750000"/>
<path d="M34.38 102.546C35.9894 101.791 37.9425 101.249 39.5363 102.348C39.2186 102.531 38.578 102.89 38.2551 103.072C35.7811 104.015 33.1092 104.932 30.4634 104.125C31.7863 103.651 33.078 103.083 34.38 102.546Z" fill="#CE1400"/>
<path d="M67.1821 102.025C67.6925 101.89 68.2082 101.76 68.7238 101.635C69.7603 102.192 70.8384 102.807 72.0675 102.666C72.6405 103.083 73.2134 103.505 73.7967 103.922C74.63 105.823 76.6248 106.807 78.1665 108.078C78.8228 107.677 79.4738 107.224 80.2498 107.094C81.7967 107.657 82.9269 109.027 84.3644 109.839C83.703 109.834 83.0415 109.855 82.3853 109.886C83.828 112.173 85.7863 114.105 88.2446 115.283C88.38 115.814 88.5102 116.35 88.6457 116.892C86.7655 116.262 85.354 114.855 83.8384 113.652C78.2811 109.787 73.1561 105.271 67.1821 102.025Z" fill="#A10100"/>
<path d="M11.4738 103.463C13.104 102.895 14.8384 102.744 16.5363 102.473C16.8071 102.651 17.354 103 17.6248 103.171C16.5207 103.474 15.4269 103.817 14.3019 104.047C13.9998 104.104 13.3905 104.213 13.0832 104.271C13.1509 104.719 13.2238 105.172 13.2915 105.635C12.6405 106.068 11.9842 106.49 11.328 106.927C11.4425 105.792 10.9269 104.479 11.4738 103.463Z" fill="#C40C00"/>
<path d="M62.896 103.067C64.3387 103.864 65.6981 104.859 67.3231 105.265C69.4377 105.76 70.9585 107.427 72.9116 108.266C73.0314 108.792 73.1616 109.323 73.2918 109.86C72.1877 109.365 71.0939 108.813 69.9064 108.558C68.9064 108.417 68.1772 109.224 67.4012 109.704C67.8387 110.105 68.2814 110.511 68.7241 110.917C67.5366 110.36 66.3022 109.917 65.0418 109.573C64.2918 107.412 63.9429 105.12 62.896 103.067Z" fill="#EF3100"/>
<path d="M13.0835 104.271C13.3908 104.213 14.0002 104.104 14.3022 104.047C14.3335 104.458 14.3908 105.276 14.422 105.682C16.4845 105.323 18.4689 104.646 20.4116 103.875C20.3387 104.229 20.1877 104.937 20.1147 105.291C18.3022 106.109 16.7033 107.339 15.745 109.115C14.7606 109.625 13.7502 110.089 12.7397 110.563C13.2241 109.766 13.8804 109.099 14.5522 108.469C13.4272 108.318 12.3022 108.162 11.1772 108.016C11.2137 107.745 11.2866 107.198 11.3283 106.927C11.9845 106.49 12.6408 106.068 13.2918 105.635C13.2241 105.172 13.1512 104.719 13.0835 104.271Z" fill="#B00000"/>
<path d="M58.1616 106.12C58.9012 106.172 59.646 106.24 60.3856 106.307C61.146 108.849 62.5835 111.126 63.5366 113.6C63.12 111.782 62.3283 110.063 62.0679 108.203C62.62 108.547 63.172 108.896 63.7033 109.277C64.4845 111.553 65.6981 113.657 66.2918 116.007C65.646 115.47 65.0002 114.934 64.3595 114.407C63.2554 114.939 62.0783 115.288 60.8856 115.553C59.6668 112.501 59.0418 109.271 58.1616 106.12Z" fill="#CE0F00"/>
<path d="M56.5781 106.255L57.401 106.589C58.3177 109.579 59.7969 112.475 59.9583 115.647C58.6354 115.262 58.599 113.756 58.224 112.662C57.7188 110.516 56.901 108.443 56.5781 106.255Z" fill="#A50200"/>
<path d="M38.2134 112.209C39.5519 110.449 40.9269 108.724 42.3228 107.021C42.4113 107.281 42.5884 107.813 42.6769 108.078C41.2863 109.485 40.4478 112.048 38.2134 112.209Z" fill="#A70700"/>
<path d="M10.6146 115.574C14.7656 113.423 19.2448 112.037 23.6198 110.443C21.9375 111.964 19.776 112.715 17.6927 113.506C15.1667 114.47 12.8958 115.96 10.5052 117.2C10.6458 117.502 10.9323 118.106 11.0729 118.403C9.39584 119.215 7.76563 120.122 6.06771 120.888C5.77084 120.002 5.47917 119.122 5.125 118.273C6.04167 117.418 6.94271 116.387 8.27083 116.257C9.07292 116.106 9.88021 115.934 10.6146 115.574Z" fill="#BD0A00"/>
<path d="M11.7137 112.699C12.6304 112.261 13.5522 111.85 14.4741 111.443C15.1252 111.615 15.7814 111.777 16.4429 111.928C13.5939 113.131 10.9897 114.803 8.27099 116.257C6.94287 116.387 6.04183 117.418 5.12516 118.273C4.67724 117.773 4.20329 117.298 3.73975 116.83C6.18245 115.064 9.03662 114.032 11.7137 112.699Z" fill="#DF2100"/>
<path d="M90.1929 114.361C88.8335 113.537 87.0835 112.761 86.7866 111.016C88.1981 111.845 89.9585 112.407 90.797 113.923L90.1929 114.361Z" fill="#A80700"/>
<path d="M91.4998 115.152C91.4946 114.569 91.4946 113.991 91.4946 113.418C91.6248 113.793 91.8905 114.538 92.0207 114.913C92.828 114.668 93.6405 114.663 94.453 114.897C93.505 115.944 92.3853 117.184 90.8228 117.028C91.0311 116.392 91.2602 115.767 91.4998 115.152Z" fill="#C71500"/>
<path d="M0 119.33C0.911458 118.418 1.86458 117.549 2.86458 116.736C3.65104 117.872 4.26562 119.111 4.75521 120.408C4.13021 120.21 3.50521 120.023 2.88021 119.835C2.94792 120.533 3.01562 121.237 3.07812 121.945C1.89583 121.278 0.828125 120.408 0 119.33Z" fill="#AF0700"/>
<path d="M36.4321 117.163C37.0988 117.59 37.755 118.033 38.4009 118.491C37.9946 119.273 37.5415 120.033 37.0884 120.794C36.7759 120.705 36.1405 120.528 35.828 120.44C35.5675 120.242 35.0519 119.846 34.7915 119.648C35.3384 118.819 35.8853 117.986 36.4321 117.163Z" fill="#B50300"/>
<path d="M66.7185 116.897C67.63 117.684 68.0883 118.736 68.0623 119.955C67.729 119.955 67.0623 119.955 66.7342 119.955C66.7185 118.929 66.7081 117.908 66.7185 116.897Z" fill="#980200"/>
<path d="M30.4325 119.471C31.8491 118.799 33.4116 118.991 34.7918 119.648C35.0522 119.846 35.5679 120.242 35.8283 120.44C36.3439 120.96 36.8439 121.497 37.3543 122.039C37.3179 122.289 37.2502 122.784 37.2137 123.034C37.2606 123.81 37.3543 124.581 37.422 125.367L37.4377 125.643C37.2762 125.659 36.9481 125.69 36.7866 125.706C36.547 125.164 36.3075 124.633 36.0575 124.107C35.6772 123.32 35.2554 122.565 34.8231 121.815C34.646 121.518 34.2918 120.924 34.1147 120.627C32.5627 120.455 30.9793 120.492 29.4741 120.919C29.8335 120.466 30.1356 119.96 30.4325 119.471Z" fill="#1C0000"/>
<path d="M29.474 120.919C30.9792 120.492 32.5625 120.455 34.1146 120.627C33.9844 120.976 33.7344 121.679 33.6094 122.028C31.9427 122.226 29.4167 121.085 28.5729 123.096C30.0521 123.237 31.5156 123.476 32.9583 123.82C32.8594 124.06 32.6667 124.544 32.5729 124.789C31.3594 124.846 30.151 124.784 28.9427 124.69C28.875 124.414 28.7448 123.857 28.6771 123.581C28.1042 123.664 27.5365 123.753 26.9688 123.841C27.7344 122.805 28.5729 121.83 29.474 120.919Z" fill="#BE0500"/>
<path d="M28.5728 123.096C29.4165 121.086 31.9426 122.226 33.6092 122.028C33.3905 122.617 33.1769 123.216 32.9582 123.82C31.5155 123.477 30.0519 123.237 28.5728 123.096Z" fill="#5A0000"/>
</svg>
