<svg width="2301" height="641" viewBox="0 0 2301 641" fill="none" xmlns="http://www.w3.org/2000/svg">
<g clip-path="url(#clip0_154_561)">
<path d="M882.714 491.064C851.688 491.064 826.95 484.271 808.497 470.685C790.044 457.099 779.905 438.342 778.08 414.414H809.409C809.815 430.636 816.405 443.209 829.18 452.131C842.158 461.053 860.306 465.514 883.626 465.514C904.107 465.514 919.822 461.763 930.772 454.26C941.925 446.757 947.501 435.706 947.501 421.106C947.501 409.75 943.547 400.422 935.639 393.122C927.933 385.62 916.476 380.449 901.268 377.61L855.338 368.789C834.655 364.734 818.737 357.231 807.584 346.281C796.431 335.331 790.855 321.744 790.855 305.522C790.855 284.636 798.662 268.11 814.276 255.943C829.89 243.573 851.08 237.389 877.847 237.389C905.019 237.389 927.122 243.878 944.155 256.855C961.391 269.63 971.429 287.475 974.268 310.389H942.939C936.652 278.755 914.448 262.939 876.326 262.939C858.481 262.939 844.49 266.487 834.351 273.585C824.415 280.479 819.447 290.415 819.447 303.393C819.447 324.482 834.452 337.967 864.463 343.847L912.218 353.277C933.104 357.332 948.92 364.936 959.668 376.089C970.618 387.242 976.093 401.538 976.093 418.977C976.093 441.688 967.779 459.431 951.151 472.206C934.523 484.778 911.711 491.064 882.714 491.064ZM1010.33 557V335.331H995.117V304.914H1026.75V332.289H1039.53C1045.61 322.15 1053.82 314.444 1064.16 309.172C1074.5 303.9 1086.98 301.264 1101.58 301.264C1119.62 301.264 1135.03 305.116 1147.81 312.822C1160.58 320.325 1170.32 331.174 1177.01 345.368C1183.9 359.563 1187.35 376.495 1187.35 396.164C1187.35 415.834 1184 432.765 1177.31 446.96C1170.62 461.154 1160.99 472.104 1148.42 479.81C1136.05 487.313 1121.25 491.064 1104.01 491.064C1089.21 491.064 1076.23 488.124 1065.08 482.243C1054.13 476.16 1045.81 467.542 1040.13 456.389H1038.92V548L1010.33 557ZM1097.62 466.731C1116.89 466.731 1131.89 460.546 1142.64 448.177C1153.39 435.807 1158.76 418.47 1158.76 396.164C1158.76 373.859 1153.39 356.521 1142.64 344.152C1131.89 331.782 1116.89 325.597 1097.62 325.597C1079.98 325.597 1065.78 330.666 1055.04 340.806C1044.29 350.945 1038.92 364.429 1038.92 381.26V411.068C1038.92 427.899 1044.29 441.384 1055.04 451.522C1065.78 461.661 1079.98 466.731 1097.62 466.731ZM1263.23 490.76C1242.95 490.76 1226.93 485.69 1215.17 475.552C1203.41 465.21 1197.53 451.928 1197.53 435.706C1197.53 418.267 1203.2 404.782 1214.56 395.252C1226.12 385.721 1242.74 380.956 1264.44 380.956H1330.14V372.439C1330.14 341.211 1313.41 325.597 1279.95 325.597C1252.78 325.597 1236.46 335.939 1230.98 356.622H1201.78C1204.62 339.184 1213.04 325.597 1227.03 315.864C1241.22 306.13 1259.17 301.264 1280.87 301.264C1305.61 301.264 1324.57 307.246 1337.75 319.21C1350.93 330.971 1357.52 348.004 1357.52 370.31V456.997H1371.51V487.414H1339.88V460.039H1327.1C1320.82 469.367 1312.09 476.87 1300.94 482.547C1289.79 488.022 1277.22 490.76 1263.23 490.76ZM1266.88 467.035C1278.43 467.035 1288.98 464.602 1298.51 459.735C1308.24 454.868 1315.95 448.379 1321.63 440.268C1327.3 431.954 1330.14 422.829 1330.14 412.893V402.856H1266.57C1238.39 402.856 1224.29 413.4 1224.29 434.489C1224.29 444.425 1228.04 452.334 1235.55 458.214C1243.25 464.095 1253.7 467.035 1266.88 467.035Z" fill="white"/>
<path d="M1390.89 487.001V334.918H1375.68V304.501H1407.32V337.959H1420.09C1425.36 327.212 1433.27 318.797 1443.82 312.714C1454.56 306.428 1467.24 303.285 1481.84 303.285H1511.9V327.618H1480.32C1461.26 327.618 1446.35 333.295 1435.6 344.651C1424.86 356.007 1419.48 371.418 1419.48 390.884V487.001H1390.89ZM1530.9 487.001V246L1559.5 237L1559.49 392.101H1560.71L1654.09 304.501H1689.68L1603.9 381.759L1696.98 487.001H1661.69L1584.74 399.401L1559.49 420.084V487.001H1530.9ZM1868.65 534.451H1682.5V512.551H1868.65V534.451ZM1868.86 487.001V304.501H1897.45V487.001H1868.86ZM1939.75 487.001V334.918H1924.55V304.501H1956.18V331.876H1968.95C1975.04 321.737 1983.55 314.133 1994.5 309.064C2005.66 303.792 2018.33 301.156 2032.52 301.156C2055.44 301.156 2073.69 307.847 2087.27 321.231C2100.86 334.613 2107.65 352.458 2107.65 374.763V487.001H2079.06V379.022C2079.06 361.786 2074.3 348.707 2064.77 339.784C2055.44 330.66 2041.75 326.097 2023.7 326.097C2005.86 326.097 1992.17 330.66 1982.64 339.784C1973.11 348.707 1968.35 361.786 1968.35 379.022V487.001H1939.75ZM2142.47 487.001V304.501H2171.06V487.001H2142.47ZM2248.64 487.001C2240.13 487.001 2233.44 484.872 2228.57 480.613C2223.91 476.152 2221.57 469.562 2221.57 460.843V326.401H2171.06V304.501H2221.88V246.001L2250 237.001L2249.86 304.501H2299.74V326.401H2250.16V464.493H2304.61V487.001H2248.64Z" fill="white"/>
<path d="M2143 246H2171V282.5H2143V246Z" fill="white"/>
<path d="M1869 246H1897V282.501H1869V246Z" fill="white"/>
<path d="M2273 304.5H2301V326.5H2273V304.5Z" fill="white"/>
<path d="M2273 464.5H2301V487H2273V464.5Z" fill="white"/>
</g>
<path d="M385.878 38.703L427.287 38.6855L296.901 445.286L197.164 345.44L385.878 38.703Z" fill="url(#paint0_linear_154_561)"/>
<path d="M297 345H197V445H297V345Z" fill="white"/>
<path d="M493 148H467V641H493V148Z" fill="white"/>
<path d="M26 148H0V641H26V148Z" fill="white"/>
<path d="M493 174V148L0 148V174L493 174Z" fill="white"/>
<path d="M493 641V615H0V641H493Z" fill="white"/>
<defs>
<linearGradient id="paint0_linear_154_561" x1="405.598" y1="-4.61494" x2="235.434" y2="489.576" gradientUnits="userSpaceOnUse">
<stop stop-color="#F83A00"/>
<stop offset="1" stop-color="white"/>
</linearGradient>
<clipPath id="clip0_154_561">
<rect width="1523" height="330" fill="white" transform="translate(778 231)"/>
</clipPath>
</defs>
</svg>
