<svg width="3617" height="531" viewBox="0 0 3617 531" fill="none" xmlns="http://www.w3.org/2000/svg">
<path d="M185.661 452.239C130.651 452.239 86.788 440.175 54.0705 416.047C21.3531 391.92 3.37643 358.609 0.140625 316.115H55.6884C56.4076 344.924 68.0924 367.25 90.743 383.097C113.753 398.942 145.931 406.864 187.278 406.864C223.591 406.864 251.454 400.203 270.869 386.878C290.644 373.553 300.53 353.927 300.53 327.999C300.53 307.832 293.52 291.266 279.499 278.302C265.836 264.979 245.522 255.796 218.557 250.754L137.123 235.088C100.45 227.885 72.227 214.562 52.4526 195.116C32.6784 175.669 22.7913 151.541 22.7913 122.732C22.7913 85.6397 36.6332 56.2901 64.3173 34.6832C92.0013 12.716 129.573 1.73242 177.031 1.73242C225.208 1.73242 264.398 13.2562 294.598 36.3037C325.158 58.9911 342.956 90.6813 347.989 131.375H292.442C281.295 75.1964 241.926 47.1072 174.334 47.1072C142.696 47.1072 117.888 53.4092 99.911 66.0133C82.2939 78.2573 73.4853 95.9031 73.4853 118.951C73.4853 156.403 100.091 180.351 153.302 190.793L237.972 207.538C275.004 214.742 303.046 228.246 322.103 248.052C341.518 267.859 351.225 293.248 351.225 324.216C351.225 364.551 336.484 396.061 307.002 418.749C277.52 441.075 237.073 452.239 185.661 452.239ZM443.2 445.757V8.21453H634.653C683.19 8.21453 720.4 20.0985 746.287 43.8661C772.173 67.6338 785.116 100.044 785.116 141.098C785.116 181.791 771.994 214.202 745.748 238.329C719.861 262.096 682.83 273.981 634.653 273.981H494.973V445.757H443.2ZM494.973 230.767H632.495C665.571 230.767 690.558 222.664 707.457 206.459C724.714 190.253 733.344 168.467 733.344 141.098C733.344 113.369 724.714 91.5815 707.457 75.7364C690.558 59.5312 665.571 51.4285 632.495 51.4285H494.973V230.767ZM762.592 445.757L950.807 8.21453H1010.67L1198.35 445.757H1146.57L1087.25 307.471H872.609L813.286 445.757H762.592ZM889.327 262.096H1070.53L981.548 53.5893H978.851L889.327 262.096ZM1257.84 445.757V8.21453H1461.69C1505.56 8.21453 1540.07 18.658 1565.24 39.5448C1590.41 60.0714 1602.99 89.601 1602.99 128.134C1602.99 146.86 1598.85 163.965 1590.58 179.45C1582.68 194.935 1569.73 208.08 1551.76 218.883V221.584C1567.93 221.584 1580.52 225.905 1589.51 234.548C1598.49 242.831 1602.99 254.714 1602.99 270.2V445.757H1551.22V262.096H1309.61V445.757H1257.84ZM1309.61 219.963H1456.3C1486.14 219.963 1509.33 212.761 1525.87 198.357C1542.77 183.592 1551.22 162.705 1551.22 135.696C1551.22 108.687 1542.77 87.9805 1525.87 73.5758C1509.33 58.811 1486.14 51.4285 1456.3 51.4285H1309.61V219.963ZM1705.29 445.757V8.21453H1757.06V226.445H1759.22L1990.04 8.21453H2055.29L1852.52 199.977L2062.31 445.757H1997.05L1813.15 230.226L1757.06 274.521V445.757H1705.29ZM2396.92 530.024H2066.87V491.132H2396.92V530.024ZM2451.39 445.757V8.21453H2503.16V445.757H2451.39ZM3006.63 445.757H2946.76L2667.95 72.4954H2665.78V445.757H2617.25V8.21453H2678.19L2955.92 381.476H2958.09V8.21453H3006.63V445.757ZM3120.67 445.757V8.21453H3172.45V445.757H3120.67ZM3455.87 445.757H3404.09V52.509H3243.39V8.21453H3616.57V52.509H3455.87V445.757Z" fill="#F83A00"/>
</svg>
