<svg width="2523" height="665" viewBox="0 0 2523 665" fill="none" xmlns="http://www.w3.org/2000/svg">
<path d="M783.65 424.369H816.865C820.515 472.184 853.73 485.324 896.8 485.324C943.52 485.324 971.26 469.629 971.26 439.334C971.26 406.484 939.505 402.469 909.94 398.089L875.265 393.344C831.1 387.139 790.95 372.539 790.95 330.564C790.95 286.764 822.34 249.899 891.69 249.899C969.8 249.899 993.16 295.524 996.81 338.959H963.595C959.945 292.969 930.015 278.004 891.69 278.004C840.225 278.004 823.8 305.744 823.8 328.739C823.8 353.194 844.24 358.304 881.835 363.779L919.065 369.254C967.61 376.189 1004.11 390.059 1004.11 437.509C1004.11 481.309 969.435 513.429 896.435 513.429C812.12 513.429 787.3 471.454 783.65 424.369ZM1053.39 466.709V582.414H1022.37V326.914H1053.39V369.619H1057.04C1065.07 345.529 1087.7 322.899 1126.76 322.899C1177.49 322.899 1216.91 365.604 1216.91 418.894C1216.91 470.724 1178.95 513.429 1128.22 513.429C1089.53 513.429 1064.71 490.799 1057.04 466.709H1053.39ZM1185.52 418.529C1185.52 380.569 1156.32 350.274 1119.82 350.274C1082.96 350.274 1053.39 380.569 1053.39 418.529C1053.39 455.759 1082.96 486.054 1119.82 486.054C1156.32 486.054 1185.52 455.759 1185.52 418.529ZM1402.16 369.619V326.914H1433.55V509.414H1402.16V466.709H1398.51C1390.84 491.894 1366.39 513.429 1328.79 513.429C1278.42 513.429 1239 470.724 1239 417.434C1239 365.604 1276.96 322.899 1327.33 322.899C1364.93 322.899 1391.21 344.434 1398.51 369.619H1402.16ZM1270.39 417.799C1270.39 455.759 1299.59 486.054 1336.09 486.054C1372.96 486.054 1402.16 455.759 1402.16 417.799C1402.16 380.569 1372.96 350.274 1336.09 350.274C1299.59 350.274 1270.39 380.569 1270.39 417.799ZM1493.97 369.619H1497.62C1502.36 345.529 1523.17 322.899 1554.92 322.899C1597.26 322.899 1619.16 354.289 1619.16 412.689H1587.77C1587.77 367.429 1570.25 350.274 1546.53 350.274C1518.42 350.274 1493.97 379.839 1493.97 421.084V509.414H1462.58V326.914H1493.97V369.619ZM1641.16 509.414V253.914H1672.18V403.199H1694.45L1764.16 326.914H1798.84L1718.9 418.164L1801.39 509.414H1767.08L1694.45 432.399H1672.18V509.414H1641.16ZM1820.09 553.944V527.299H2020.84V553.944H1820.09ZM2050 275.084C2050 264.134 2058.76 256.104 2069.71 256.104C2080.66 256.104 2089.42 264.134 2089.42 275.084C2089.42 286.399 2080.66 294.429 2069.71 294.429C2058.76 294.429 2050 286.399 2050 275.084ZM2054.02 509.414V326.914H2085.41V509.414H2054.02ZM2115.59 326.914H2146.61V369.619H2150.26C2157.56 345.529 2180.56 322.899 2218.15 322.899C2265.97 322.899 2300.28 364.874 2300.28 418.164V509.414H2268.89V418.164C2268.89 378.379 2242.24 350.274 2208.66 350.274C2174.35 350.274 2146.61 380.204 2146.61 418.164V509.414H2115.59V326.914ZM2325.89 275.084C2325.89 264.134 2334.65 256.104 2345.6 256.104C2356.55 256.104 2365.31 264.134 2365.31 275.084C2365.31 286.399 2356.55 294.429 2345.6 294.429C2334.65 294.429 2325.89 286.399 2325.89 275.084ZM2329.9 509.414V326.914H2361.29V509.414H2329.9ZM2384.13 326.914C2431.22 326.914 2428.66 312.314 2428.66 290.049V272.164H2460.78V292.604C2460.78 309.394 2460.42 323.264 2438.52 323.264V326.914H2515.17V354.654H2459.69V461.234C2459.69 479.484 2461.88 482.404 2480.13 482.404H2511.52V509.414H2470.27C2441.44 509.414 2428.66 497.734 2428.66 467.439V354.654H2384.13V326.914Z" fill="#F83A00"/>
<path d="M385.878 38.7034L427.287 38.6859L296.902 445.286L197.164 345.44L385.878 38.7034Z" fill="url(#paint0_linear_24_90)"/>
<rect x="197" y="345" width="100" height="100" fill="#F83A00"/>
<rect x="465" y="148" width="28" height="493" fill="#F83A00"/>
<rect y="148" width="28" height="493" fill="#F83A00"/>
<rect x="493" y="148" width="28" height="493" transform="rotate(90 493 148)" fill="#F83A00"/>
<rect x="493" y="613" width="28" height="493" transform="rotate(90 493 613)" fill="#F83A00"/>
<defs>
<linearGradient id="paint0_linear_24_90" x1="405.598" y1="-4.61459" x2="235.435" y2="489.576" gradientUnits="userSpaceOnUse">
<stop stop-color="#F83A00"/>
<stop offset="1" stop-color="white"/>
</linearGradient>
</defs>
</svg>
